<svg xmlns="http://www.w3.org/2000/svg" viewBox="0 0 32 32">
  <defs>
    <style>
      .red-gradient {
        fill: url(#redGradient);
      }
      .white-path {
        fill: #ffffff;
      }
    </style>
    <linearGradient id="redGradient" x1="0%" y1="0%" x2="100%" y2="100%">
      <stop offset="0%" style="stop-color:#c9302c;stop-opacity:1" />
      <stop offset="100%" style="stop-color:#a82522;stop-opacity:1" />
    </linearGradient>
  </defs>

  <circle class="red-gradient" cx="16" cy="16" r="16"/>

  <path class="white-path" d="M 12 9 L 12 18 C 12 22, 16 22, 16 22 C 16 22, 20 22, 20 18 L 20 9 L 18 9 L 18 18 C 18 20.5, 16 20.5, 16 20.5 C 16 20.5, 14 20.5, 14 18 L 14 9 Z M 25 16 A 9 9 0 0 0 7 16 A 1 1 0 0 1 7 16 A 9 9 0 0 0 25 16 Z M 24 16 A 8 8 0 0 1 8 16 A 1 1 0 0 0 8 16 A 8 8 0 0 1 24 16 Z"/>
</svg>