<svg height="321.586475" viewBox="0 0 256.00455 264.58334" width="310.958351" xmlns="http://www.w3.org/2000/svg" xmlns:xlink="http://www.w3.org/1999/xlink"><clipPath id="a"><path d="m0 0h598.11v737.008h-598.11z"/></clipPath><g fill="#63513d" transform="matrix(.26458333 0 0 .26458333 .000004 -13.854165)"><path d="m0 0c.864 1.385 1.636 2.614 3.528 3.614-.2.121-.485.307-.635.407-.736-.322-1.465-.964-2.086-1.614-1.428-1.486-1.3-2.343-2.807-2.921-.378-.143-.842-.3-1.435-.436-.35 1.079-1.228 2.15-2.157 2.15-.643 0-1.386-.336-2.243-.714-1.007-.443-1.928-.95-2.221-1.143l.393-.529c.3.165 1.164.593 2.028.965.75.321 1.428.585 1.886.585.735 0 1.214-.835 1.478-1.507-.964-.228-2.55-.286-3.028-.286-.221 0-.3-.035-.379-.099-.071-.065-.128-.179-.164-.336l-.057-.243h.514c2.671 0 5.192.421 6.814 1.407.228-.064.428-.107.685-.107.929 0 1.886.507 2.486.971.214.165.264.315.264.479 0 .078-.007.15-.014.221l-.029.279c-.857-.679-1.571-1.186-2.457-1.186-.157 0-.271.014-.364.043m5.378 2.685c-1.071-2.257-2.7-3.899-4.371-4.849-.793-.45-1.507-.743-3.05-.743h-3.335c-1.193 0-1.942-.157-2.528-.307-.629-.164-1.029-.328-1.664-.328-.943 0-1.814.464-2.236.907l.786.621-.393.521c-.228-.164-3.021-2.228-3.607-2.692l-.035.021c.014.143.014.272.014.4 0 1.571-.729 1.95-1.835 2.393l-.75-.443c1.521-.507 1.9-.914 1.9-2.05 0-.9-.322-1.257-.786-1.528-.479-.279-1.072-.407-1.593-.407-.221 0-.321-.043-.4-.122-.086-.085-.128-.214-.128-.392v-.25h.178c.957 0 1.843.149 2.814.914l3.164 2.471c.45-.514 1.586-1.229 2.928-1.229.757 0 1.243.186 1.943.365.543.136 1.071.257 2.228.257h3.35c1.714 0 2.542.357 3.456.871 1.986 1.114 3.679 3 4.636 5.164-.25.157-.486.3-.686.435m-13.262 2.55c.899.636 1.828.707 2.578.707.45 0 .978-.064 1.535-.136.45-.057.857-.1 1.343-.1.978 0 1.964.357 2.392.543.122-.15.329-.35.493-.493-.207-.128-1.521-.842-2.864-.842-.593 0-1.157.071-1.642.135-.429.057-.893.107-1.343.107-.493 0-1.486-.142-2.1-.435zm-10.278.129c.386 0 .7.128 1 .25.286.114.571.228.957.228.914 0 2.042-.443 3.035-.864.057-.022.122-.036.186-.036.157 0 .279.072.357.222l.128.235c-1.092.636-2.835 1.314-3.742 1.314-.414 0-.714-.107-1-.221-.321-.129-.6-.264-.893-.264-.721 0-2.57.714-2.57 1.407 0 .814 2.942 1.128 3.264 1.128l.292.664c-2.135 0-4.678-.75-4.678-1.742 0-.286.165-.429.165-.693 0-.357-.165-.6-.165-1 0-.264.157-.6.343-.893.2-.307.436-.507.436-.764 0-.193-.129-.421-.129-.871 0-.964.55-1.55 1.621-2.7l.214-.228c-.885-.343-2.535-1.057-2.92-1.222-1.336-.557-1.672-1.235-1.672-2.306 0-.415 0-.886.029-1.307h.257c.536 0 .6.321.6.628 0 .207-.007.443-.007.7.007.593.028 1.121.985 1.55.386.171 2.279.942 3.686 1.542.414.179.799.329 1.228.329.478 0 1.028-.207 1.714-.614.578-.343 1.186-.807 1.664-1.343l.607.464c-.521.615-1.242 1.164-1.964 1.593-.721.429-1.364.678-1.907.678-.235 0-.428-.042-.593-.085-.192-.05-.371-.107-.599-.107-.265 0-.486.064-.808.435-.121.136-.892 1.015-1.056 1.271-.079.122-.222.365-.222.651 0 .121.021.264.093.392.664-.514 1.485-.828 2.485-.95l-.135.679c-1.436.378-2.964 1.642-2.964 2.457 0 .171.043.292.107.442.557-.514 1.864-1.049 2.571-1.049m12.805 3.263h3.65l-.271.658h-3.036zm18.641 4.671c.857.365 2.393.979 3.278 1.3v.871c-1.778-.656-4.899-1.949-7.027-3.106.057-.072.428-.593.471-.657.9.371 1.707.614 2.435.614 1.021 0 1.857 0 3.257.328v.657c-.786-.142-1.621-.314-2.164-.314-.321 0-.414.043-.414.15 0 .065.043.107.164.157m-1.907 2.593c-.557 0-.714.307-.714.743 0 .9.564 2.192.921 2.928h-.864c-.45-.871-2.221-3.664-3.178-4.821l.55-.593c.514.572 1.078 1.543 1.693 2.5h.114c0-.05-.007-.107-.007-.157 0-.807.414-1.407 1.435-1.407.629 0 1.614.314 2.543.628.771.265 1.478.536 1.828.636v.857c-.4-.121-1.214-.436-2.057-.728-.885-.308-1.757-.586-2.264-.586m-18.897-14.334-.172.657c1.471.793 2.814 1.429 4.957 1.635.042-.821-.015-1.856.592-1.856.558 0 1.772 1.435 3.171 3.235.129-.122.336-.25.522-.393l-.357-.464c-1.364-1.757-2.529-3.257-3.486-3.257-.892 0-1.228 1.05-1.242 1.836-1.364-.136-2.65-.593-3.985-1.393m-.972.321c-.942-.528-1.921-.878-2.785-.878-.964 0-1.821.414-2.536 1.492-.3.458-.535 1.029-.821 1.536-.343.6-.714.921-1.364.921-.593 0-1.171-.243-1.785-.507l.028-.135c.05-.222.136-.379.343-.379.093 0 .186.043.236.057.343.107.593.2.942.2.536 0 .793-.314 1.158-1.085l.135-.286c-.371-.129-1.243-.193-1.892-.193h-.308l.05-.307c.022-.128.072-.236.179-.286.128-.064.314-.071.636-.071.814 0 1.406.1 1.749.186.879-1.307 2.086-1.807 3.25-1.807.993 0 2 .364 2.964.892zm-2.657.272c-.964 0-1.392.457-1.392 1.035 0 1.014 1.778 2.007 3.378 2.621l.414-.535c-.985-.393-2.971-1.236-2.971-1.964 0-.257.15-.443.75-.443 1.043 0 2.164.507 3.2 1.014.078.036.171.071.257.071.135 0 .221-.042.321-.185l.172-.236c-1.207-.664-2.714-1.378-4.129-1.378m22.076-18.641c.093.879.765 1.536 1.786 1.536 1 0 1.693-.657 1.785-1.536zm1.779 3.128c-2.479 0-3.871-1.935-3.871-3.978 0-2.178 1.492-4.092 3.885-4.092 1.193 0 2.364.45 3.035 1.242.293.343.529.822.529 1.115 0 .1-.022.186-.079.25-.057.071-.143.114-.293.114h-1.15c-.228 0-.385-.086-.499-.257-.336-.493-.822-.75-1.536-.75-1.071 0-1.764.814-1.814 1.707h4.985c.221 0 .379.05.486.157.121.114.178.279.178.586 0 .935-.293 1.906-.907 2.649-.628.75-1.599 1.257-2.949 1.257m3.149 1.093c.15 0 .264.043.35.114.093.086.136.2.136.372v.664c0 .257-.05.386-.136.478-.078.086-.207.136-.35.136-.114 0-.228-.014-.421-.036l-5.699-.564c-.165-.014-.243-.064-.3-.128-.065-.072-.093-.165-.093-.293v-.372c0-.142.028-.207.078-.264.065-.071.158-.107.286-.107zm-24.19 23.433c0 .071.008.157.036.243.057.185.179.364.479.364.135 0 .285-.036.407-.121.107-.072.15-.165.15-.257 0-.308-.515-.665-.772-.665-.185 0-.3.179-.3.436m-1.678 4.406c0 .308.186.643.543.643.157 0 .343-.064.478-.193.079-.071.115-.15.115-.228 0-.172-.165-.336-.358-.45-.149-.086-.307-.143-.442-.143-.222 0-.336.136-.336.371m7.249 2.086c0 .25.129.7.593.7.157 0 .307-.036.428-.093.172-.078.286-.193.286-.314 0-.129-.128-.257-.321-.414-.2-.165-.457-.315-.665-.315-.25 0-.321.236-.321.436m-18.319-5.542c-.093-.036-.136-.057-.186-.057-.078 0-.114.064-.114.114s.021.079.071.121c.879.686 1.65.957 2.714 1.136l.129-.428zm4.842 3.314-.385.235c.249.593.557 1.136.921 1.543.257.293.5.528.771.764.064.05.1.093.165.093.071 0 .121-.057.121-.114 0-.029-.015-.064-.043-.107-.435-.679-1.285-2.022-1.55-2.414m-5.063 2.392c-.065.057-.079.093-.079.136 0 .05.036.107.114.107.029 0 .057-.007.093-.021.529-.215.979-.465 1.379-.772.335-.257.664-.571.985-.95l-.3-.342c-.371.307-1.571 1.314-2.192 1.842m5.235-6.449c.107.179.428.614.557.75-.55 1.114-1.45 2.178-1.843 2.6l-.328-.322c.378-.55 1.014-1.614 1.614-3.028m3.835-27.861c.093.879.764 1.536 1.785 1.536 1 0 1.693-.657 1.786-1.536zm19.148 24.626c-.051.064-.093.093-.151.093-.085 0-.128-.058-.128-.122 0-.1.071-.221.25-.521.543-.922 1.214-1.85 2.042-2.721.893-.95 1.943-1.836 3.064-2.629l.35-.242c.05-.036.086-.057.129-.057.071 0 .121.071.121.128 0 .036-.014.071-.057.107-1.042.95-2.164 2.107-3.214 3.221-.821.879-1.664 1.807-2.406 2.743m-18.327.435c-.407-.55-.964-1.271-1.393-2.035.136-.064.586-.307.743-.393.493.743 1.179 1.657 1.629 2.35.407.628.571.9.6 1.743.007.142.007.278.021.413.036.436.15.879.564 1.286.307.307.75.464 1.193.464.429 0 .678-.121 1.05-.121.264 0 .457.064.628.129l.136.05-.329-.786.772-.314c-.493-.307-1.571-1.629-1.571-3.193 0-.564.085-1.085.207-1.55.014-.05.042-.1.121-.1.072 0 .122.043.129.122l.007.164c.021.479.057 1.236.25 1.914.321 1.143 1.185 2.214 2.049 2.728l-1.228.536.529 1.293-.579-.122c-.35-.071-.607-.135-.914-.135-.2 0-.429.028-.7.092-.207.051-.428.093-.743.093-.564 0-1.171-.214-1.585-.614-.757-.721-.8-1.5-.85-2.192-.065-.922-.236-1.15-.736-1.822m-1.643 4.864c-.335-.478-.578-.714-1.342-1.614-1.007-1.193-1.536-2.157-2.414-4.3.143.015.35.029.578.029.115 0 .208 0 .358-.007l.106.228c.493 1.057 1.157 2.486 2.086 3.586l.321.378c.958 1.122 1.55 1.786 1.922 3.314.128.543.235 1.029.6 1.379.328.314.742.449 1.164.449.357 0 .621-.085 1.007-.25.35-.149.478-.178.85-.178.128 0 .221.007.307.014l-.5-.671.678-.478c-.85-.251-1.3-1.072-1.449-1.451-.029-.078-.043-.128-.043-.178 0-.057.028-.114.114-.114.093 0 .164.071.286.214.414.5.742.843 2.271 1.321l-1.079.814.814 1.193h-.764c-.485 0-.807.007-1.228.2-.572.264-.864.379-1.372.379-.621 0-1.185-.222-1.649-.65-.536-.493-.7-1.15-.893-1.872-.15-.557-.328-1.171-.729-1.735m19.084-34.088c0-.186.057-.322.143-.429.107-.129.257-.208.478-.208h.85c.221 0 .371.079.479.208.085.107.142.243.142.429v9.348c0 .186-.057.321-.142.429-.108.128-.258.207-.479.207h-.85c-.221 0-.371-.079-.478-.207-.086-.108-.143-.243-.143-.429zm-4.371 7.02h-.4c-.15 0-.264-.043-.35-.114-.093-.086-.135-.201-.135-.372v-.493c0-.171.042-.285.135-.371.086-.071.2-.114.35-.114h.4v-3.564c0-.914.25-1.486.714-1.943.429-.421.986-.686 1.957-.686h.607c.15 0 .264.043.35.115.093.086.15.2.15.371v.622c0 .171-.057.285-.15.371-.086.072-.2.114-.35.114h-.085c-.386 0-.651.1-.829.272-.214.199-.322.507-.322.907v3.421h1.301c.149 0 .264.043.349.114.093.086.136.2.136.371v.493c0 .171-.043.286-.136.372-.085.071-.2.114-.349.114h-1.293v2.328c0 .186-.057.321-.143.429-.107.128-.257.207-.479.207h-.807c-.221 0-.371-.079-.478-.207-.086-.108-.143-.243-.143-.429zm-16.791 32.667c.15.329.479.557.871.557.536 0 .965-.414.965-.964 0-.321-.15-.6-.386-.771.05-.186.086-.35.086-.507 0-.6-.357-1.021-1.015-1.243-.085-.364-.242-.693-.499-.936-.429-.414-.864-.414-.864-.585 0-.093.064-.15.242-.15.793 0 1.571.443 1.664 1.178.757.257 1.214 1.022 1.214 1.629 0 .157-.014.293-.078.421.207.2.45.543.45 1.05 0 .443-.193.893-.536 1.221-.3.293-.721.486-1.214.486-.714 0-1.178-.386-1.442-.764-.779 0-1.786-.864-1.786-2.1h-.107c-.072.428-.514.714-.886.736-.3.899-.978 1.671-2.093 1.671-.128 0-.285-.007-.421-.029-.328.3-.692.486-1.2.486-.971 0-1.764-.778-1.764-1.764 0-.614.279-1.036.807-1.407 0 0-.007-.079-.007-.114 0-.786.857-2.014 2.129-2.014 0-.2.25-.472.528-.522v-.1h-.107c-1.75 0-2.493-.843-2.493-1.407-.521-.214-.857-.793-.857-1.328 0-1.064.779-1.821 1.807-1.821.343 0 .693.135.936.321.178-.064.407-.1.642-.1.493 0 1.043.171 1.429.736.057-.007.107-.007.164-.007.629 0 1.172.414 1.457.957.072.135.1.242.1.321s-.035.143-.114.143c-.1 0-.114-.093-.293-.257-.4-.364-1.014-.5-1.643-.5-.307-.45-.685-.686-1.121-.686-.321 0-.571.086-.828.257-.207-.228-.465-.321-.715-.321-.564 0-.964.393-.964.964 0 .4.257.757.614.893.065.707.822 1.185 1.765 1.185.121 0 .243-.007.371-.021.143.228.486.471.971.535.1.015.179.022.236.05.057.029.086.086.086.151 0 .057-.022.107-.079.142-.05.029-.136.043-.236.064-.449.086-.985.365-1.257 1.044-1.078 0-1.871.863-1.871 1.835v.064c-.357.143-.6.486-.6.893 0 .535.422.964.957.964.322 0 .6-.157.779-.393.15.043.321.057.485.057.8 0 1.658-.507 1.822-1.492 1.028-.093 1.271-.965 1.335-1.329.036-.186.064-.343.186-.343.129 0 .157.143.2.336.078.364.214.657.486.886 0 .935.699 1.742 1.692 1.742m12.342-32.396c-1.957 0-3.243-.928-3.243-2.414 0-.528.193-.956.507-1.292.364-.393.886-.665 1.643-.857l1.635-.415c.45-.114.85-.249.85-.642 0-.607-.643-.815-1.328-.815-.336 0-.686.065-.971.208-.201.1-.372.242-.493.435-.107.164-.143.286-.308.379-.099.057-.221.064-.385.064h-.885c-.193 0-.286-.057-.351-.136-.064-.078-.086-.193-.086-.307 0-.285.101-.643.336-.964.543-.729 1.679-1.314 3.129-1.314 1.428 0 3.406.593 3.406 2.507 0 .493-.143.914-.407 1.257-.336.435-.814.735-1.628.942l-1.621.415c-.672.171-.986.292-.986.707 0 .4.357.721 1.186.721.485 0 .928-.107 1.214-.407.235-.25.193-.379.378-.479.115-.057.243-.057.443-.057h.807c.129 0 .221.022.293.1.057.065.093.165.093.329 0 .371-.243.85-.672 1.214-.571.493-1.471.821-2.556.821m-7.664 0c-2.478 0-3.871-1.935-3.871-3.978 0-2.178 1.493-4.092 3.885-4.092 1.193 0 2.364.45 3.036 1.242.293.343.528.822.528 1.115 0 .1-.021.186-.078.25-.057.071-.143.114-.293.114h-1.15c-.229 0-.385-.086-.5-.257-.336-.493-.821-.75-1.535-.75-1.072 0-1.765.814-1.815 1.707h4.971c.222 0 .379.05.486.157.122.114.179.279.179.586 0 .935-.293 1.906-.907 2.649-.629.75-1.586 1.257-2.936 1.257m19.841 24.097c-2.657 3.964-4.992 5.3-5.65 5.928-.721.693-1.271 1.479-1.621 1.857-.778.85-1.785 1.9-3.442 1.9-1.6 0-2.657-1.043-3-1.943-.1-.257-.179-.571-.25-.685-.157-.257-.864-1.464-1.157-1.943h1.322l-.643-1.214c.75.164 1.285.286 1.999.286.636 0 1.093-.151 1.293-.55.371-.743.371-2.993 1-4.686.585-1.592 2.014-3.149 3.621-4.342.021-.014.043-.021.071-.021.079 0 .129.057.129.114 0 .043-.014.071-.05.107-1.343 1.343-2.436 2.828-3.021 4.457-.579 1.585-.486 3.814-.993 4.806-.336.657-1.05.829-1.707.829-.529 0-1.021-.107-1.25-.157l.579.978h-.979c.207.364.422.7.529.9.093.171.128.386.243.679.371.935 1.192 1.528 2.264 1.528 1.342 0 2.128-.864 2.906-1.729.358-.399.943-1.235 1.622-1.856.464-.429 1.349-.908 2.714-2.314.785-.814 1.699-1.871 2.664-3.286 3.449-5.049 5.713-9.499 6.977-12.97l-.021-.014c-3.621 2.457-6.756 4.778-9.285 7.642-1.792 2.036-3.349 4.392-4.706 7.399-.093.2-.172.386-.257.579-.036.078-.072.1-.129.1-.071 0-.121-.05-.121-.122 0-.078.035-.25.114-.593.721-3.113 2.721-5.906 4.857-8.227 2.128-2.307 4.535-4.292 6.513-5.735l1.543-4.414c.035-.107.078-.221.078-.328 0-.079-.021-.143-.071-.186-.043-.043-.1-.064-.229-.064h-.464c-.2 0-.278.028-.35.085-.071.057-.121.143-.157.243-.136.415-.95 2.736-1.107 3.207-.029.086-.079.114-.136.114-.071 0-.121-.057-.121-.121 0-.057.021-.122.057-.322.207-1.057.45-2.242.55-2.692.043-.207.093-.4.093-.543 0-.129-.029-.2-.136-.307l-.479-.486c-.114-.114-.178-.143-.271-.143-.114 0-.207.079-.25.279-.543 2.535-1.364 5.678-1.578 6.549-.05.193-.086.3-.2.3-.1 0-.136-.071-.136-.157 0-.064.014-.143.022-.2.128-.9.65-4.178 1.214-7.171.1-.514.293-.799.735-.799.2 0 .393.078.572.25.292.292.378.371.728.714.25.243.421.342.85.342h1.057c.25 0 .386.065.507.179.114.107.186.257.186.472 0 .221-.057.399-.136.621-.271.728-1.143 3.192-1.4 3.885l.022.014c.893-.678 2.192-1.542 2.764-1.542.178 0 .285.078.285.357 0 1.314-2.185 6.72-7.177 14.162m-26.354-21.64c-.1-.121-.157-.257-.157-.493v-6.484h-.036s-3.55 6.327-3.721 6.62c-.121.207-.257.35-.436.457-.178.1-.364.164-.721.164h-1.172c-.271 0-.442-.092-.563-.235-.101-.122-.158-.257-.158-.493v-9.192c0-.235.057-.371.158-.493.121-.143.292-.236.563-.236h.665c.271 0 .443.093.564.236.1.122.157.258.157.493v6.642h.036s3.685-6.528 3.835-6.771c.207-.342.557-.6 1.057-.6h1.136c.271 0 .443.093.564.236.1.122.157.258.157.493v8.292h14.92c.15 0 .264.043.35.114.092.086.135.2.135.372v.628c0 .172-.043.286-.135.372-.086.071-.2.114-.35.114h-16.284c-.272 0-.443-.093-.564-.236" transform="matrix(23.893721 0 0 -23.893721 571.84841 540.24809)"/><g clip-path="url(#a)" transform="matrix(7.0555847 0 0 -7.0555847 -3020.0097 5757.0769)"><text fill="#63513d" font-family="LTUnivers" font-weight="300" transform="matrix(0 -1 -1 0 -10.0191 708.6614)"><tspan fill="#63513d" font-size="7.5" x="0 5.67825 9.80175 13.52775 16.049999 17.913 21.903 23.792999 27.648001 29.538 34.91925 39.285751 43.63575 48.087002 52.0275 53.775002 55.665001 60.66 64.69725 68.670753 70.514252 74.561249 80.71125 82.60125 86.841003 90.920998 94.849503" y="0">Nestlé – Annual Review 2016</tspan></text></g></g></svg>