<svg width="502" height="503" xmlns="http://www.w3.org/2000/svg" xmlns:xlink="http://www.w3.org/1999/xlink" xml:space="preserve" overflow="hidden"><g transform="translate(-408 -69)"><g><g><g><g><path d="M193.094 209.168C195.904 206.252 197.475 202.362 197.477 198.312 197.495 194.199 195.859 190.25 192.937 187.353L143.463 137.827C140.543 134.903 136.585 133.252 132.452 133.235 128.337 133.266 124.4 134.916 121.493 137.827L116.013 143.359 187.405 214.595Z" fill="#000000" fill-rule="nonzero" fill-opacity="1" transform="matrix(1.002 0 0 1 408 70)"/><path d="M264.852 335.879C261.86 338.92 256.97 338.959 253.929 335.967 253.899 335.938 253.869 335.909 253.84 335.879L165.121 247.16C162.069 244.104 162.069 239.152 165.121 236.096L176.185 225.346 105.053 154.266C100.461 158.859 95.9728 163.347 93.0503 166.113 85.8928 172.802 81.6087 182.006 81.0994 191.789 80.4538 207.746 83.3038 223.652 89.4494 238.393 95.3382 251.601 102.56 264.174 111.003 275.915 140.365 319.968 177.502 358.307 220.597 389.058 227.792 394.38 235.361 399.176 243.246 403.409 261.066 412.775 280.589 418.454 300.652 420.109 314.375 421.108 327.81 415.829 337.183 405.758L346.995 395.947 275.602 324.815Z" fill="#000000" fill-rule="nonzero" fill-opacity="1" transform="matrix(1.002 0 0 1 408 70)"/><path d="M363.382 357.537 313.908 307.906C307.808 301.87 297.985 301.87 291.885 307.906L286.666 313.543 357.85 385.039 363.382 379.821C369.418 373.72 369.418 363.898 363.382 357.797Z" fill="#000000" fill-rule="nonzero" fill-opacity="1" transform="matrix(1.002 0 0 1 408 70)"/><path d="M324.293 260.938 303.418 260.938C301.155 230.999 279.734 205.987 250.5 199.148L250.5 177.855C291.344 185.165 321.854 219.516 324.293 260.938Z" fill="#000000" fill-rule="nonzero" fill-opacity="1" transform="matrix(1.002 0 0 1 408 70)"/><path d="M374.184 250.5C374.184 253.997 374.184 257.493 373.715 260.938L352.84 260.938C353.198 257.47 353.372 253.986 353.362 250.5 353.275 193.735 307.265 147.748 250.5 147.691L250.5 126.816C318.785 126.873 374.127 182.215 374.184 250.5Z" fill="#000000" fill-rule="nonzero" fill-opacity="1" transform="matrix(1.002 0 0 1 408 70)"/><path d="M427.938 250.5C427.938 253.997 427.938 257.493 427.572 260.938L406.697 260.938C406.697 257.493 407.115 253.997 407.115 250.5 407.115 166.915 339.356 99.1562 255.771 99.1562 255.754 99.1562 255.736 99.1562 255.719 99.1562 253.944 99.1562 252.222 99.1562 250.5 99.1562L250.5 78.2812 255.719 78.2812C350.833 78.2812 427.938 155.386 427.938 250.5Z" fill="#000000" fill-rule="nonzero" fill-opacity="1" transform="matrix(1.002 0 0 1 408 70)"/></g></g></g></g></g></svg>