<?xml version="1.0" encoding="UTF-8" standalone="no"?>
<svg
   version="1.2"
   viewBox="0 0 140.46324 174.69452"
   width="278.14502"
   height="346.00348"
   id="svg18"
   xmlns="http://www.w3.org/2000/svg"
   xmlns:svg="http://www.w3.org/2000/svg">
  <path d="M 140.46323,95.923179 69.277763,113.49116 0,95.817365 V 174.71303 L 69.242488,157.05335 140.46323,174.58075 Z" id="path6" style="fill:#c10c1a" />
  <path id="path8" d="M 8.7878205,108.20607 C 8.4525276,108.20607 8.2848672,108.37397 8.2848672,108.54161 V 162.37576 C 8.2848672,162.71107 8.4876432,162.87895 8.8229362,162.7113 L 14.223108,161.53797 C 14.390755,161.53797 14.41781,161.39347 14.417811,161.22582 L 14.418004,142.27541 C 14.418007,141.94011 14.586379,141.79434 14.920957,141.77246 L 17.078662,141.63131 C 20.699209,141.40634 24.260143,138.51324 24.260143,134.15569 V 118.04053 C 24.427789,114.34533 21.745507,111.07059 18.057285,110.23236 L 15.018209,109.5613 Z M 128.24257,108.25468 C 127.02101,108.2095 125.4842,108.47083 123.59818,108.83755 117.89122,110.02505 115.71147,111.12138 115.71147,118.33716 V 122.19267 C 115.71147,134.78711 125.94483,138.82449 125.94483,147.54908 V 153.26346 C 125.87915,155.3007 125.00158,155.66333 123.59818,155.43924 121.92171,155.27159 121.25084,154.77199 121.25084,151.41906 V 142.61739 C 121.25084,141.9468 120.68554,141.95184 118.0588,141.95184 115.78202,141.95184 115.60606,141.8972 115.60606,142.56778 V 152.08944 C 115.60606,160.3111 118.39416,161.07556 123.59818,162.24909 130.80697,163.93952 132.2593,161.48491 132.2593,153.93383 V 148.22015 C 132.2593,134.61983 121.81097,131.43396 121.81097,122.3601 121.81097,121.35422 121.64333,119.00774 121.81097,117.8342 121.81097,115.98311 122.59231,115.4802 124.10113,115.31255 125.4423,114.97726 126.28036,115.81546 126.28036,117.8342 V 126.06266 C 126.28036,126.5656 127.45374,126.56561 129.46551,126.56561 131.14197,126.56561 132.09188,126.5656 132.09188,126.06266 V 115.13136 C 132.09188,109.93518 130.93001,108.35404 128.24257,108.25468 Z M 112.52626,111.79486 C 112.47162,111.78433 112.40608,111.78482 112.32715,111.79556 L 101.28361,114.1739 C 101.11597,114.1739 100.94795,114.3411 100.94809,114.50874 L 100.9833,156.44859 C 100.98344,156.62323 101.15118,156.79102 101.31882,156.79102 L 112.22946,159.30578 C 112.56475,159.30578 112.73437,159.13812 112.73241,158.80283 L 112.69719,152.76405 C 112.69623,152.5964 112.69765,152.42852 112.36236,152.42852 L 107.08031,151.47191 C 106.74502,151.47191 106.74546,151.30402 106.74546,151.13638 V 138.02202 C 106.74546,137.85437 106.91267,137.68649 107.08031,137.68649 L 111.00344,137.44851 C 111.33873,137.44851 111.44439,137.28084 111.44439,136.94556 V 131.43166 C 111.44439,131.24947 111.2979,131.11057 111.00344,131.12163 L 107.08031,131.2665 C 106.91267,131.2665 106.74546,131.09883 106.74546,130.76355 V 119.88119 C 106.74546,119.71353 106.91267,119.54565 107.08031,119.54565 L 112.41671,118.65289 C 112.58437,118.65289 112.75224,118.485 112.75224,118.31735 V 112.20825 C 112.75224,111.95678 112.6902,111.82647 112.52626,111.79486 Z M 27.908398,112.36917 C 27.651739,112.31977 27.315608,112.39569 27.296317,112.70402 L 27.29619,158.19161 C 27.315481,158.44856 27.487359,158.56404 27.752501,158.52026 L 32.314048,157.61113 C 32.649342,157.44349 32.649889,157.27584 32.64958,157.10819 L 32.614388,138.02568 C 32.614079,137.85804 32.782048,137.69014 33.117341,137.69014 H 34.793622 C 35.893039,137.69014 36.548316,138.46561 36.638011,139.53384 L 36.708614,156.14603 C 36.748246,156.50102 37.018133,156.57971 37.378989,156.50155 L 41.584346,155.59244 C 41.751993,155.4248 41.754522,155.25711 41.751767,155.08949 L 41.819359,140.19517 C 41.651711,137.84812 41.316336,135.91062 38.801639,134.7371 41.148691,133.73121 41.513999,131.80863 41.513999,129.62223 V 119.71681 C 41.513999,116.69917 40.339867,115.18355 37.475905,114.51297 Z M 14.893603,115.75709 15.913289,115.96048 C 17.866528,116.37686 19.028015,118.04908 19.028015,119.8932 V 132.77883 C 19.028015,134.28765 17.921854,135.72311 16.248929,135.83198 L 14.893711,135.92016 C 14.726418,135.93105 14.390761,135.75228 14.390759,135.58464 L 14.390612,125.63403 14.425888,116.09261 C 14.426577,115.90637 14.614886,115.71543 14.893603,115.75709 Z M 93.059283,116.05514 C 93.00095,116.04204 92.929092,116.04212 92.840191,116.06065 L 88.219917,117.04637 C 88.052271,117.04637 87.88438,117.21426 87.88438,117.38192 V 153.6337 C 87.88438,153.80135 88.052271,153.96923 88.219917,153.96923 L 97.669226,156.01205 C 97.886481,156.10805 98.130148,155.93787 98.130148,155.77023 V 150.28788 C 98.130148,150.12024 98.07479,149.98542 97.794618,149.95234 L 93.620117,149.26383 C 93.452471,149.26383 93.284587,149.09594 93.284587,148.92829 V 116.39136 C 93.284587,116.25296 93.234306,116.09444 93.059283,116.05514 Z M 45.812995,116.32222 C 45.624393,116.35366 45.529827,116.57335 45.529827,116.69909 V 154.32233 C 45.529827,154.48996 45.697484,154.65717 46.032779,154.65717 L 50.231402,153.65126 C 50.399049,153.65126 50.566244,153.48406 50.566244,153.31642 V 117.80628 C 50.566244,117.64562 50.513758,117.47097 50.231402,117.30333 L 46.032779,116.36425 C 45.948953,116.32234 45.875863,116.31174 45.812995,116.32222 Z M 54.967833,118.31405 C 54.632542,118.31405 54.464881,118.37562 54.464881,118.7109 V 152.31051 C 54.464881,152.6458 54.632542,152.813 54.967833,152.64535 L 58.417541,151.97498 C 58.585187,151.97498 58.753071,151.80732 58.753071,151.47203 V 134.71838 C 58.757439,134.71839 58.765894,134.55097 58.920493,134.55097 H 59.088602 C 59.211696,134.55207 59.256677,134.69717 59.256024,134.71838 L 63.182174,150.46612 C 63.182174,150.80142 63.349836,150.80166 63.68513,150.80166 L 66.646677,150.13058 C 66.814324,150.13058 66.981519,149.96358 66.981519,149.78197 V 121.22567 C 66.981519,121.05802 66.814324,120.89014 66.646677,120.89014 L 63.531815,120.21976 C 63.364169,120.05211 63.028859,120.22 63.028859,120.5553 V 134.01246 C 63.028859,134.18011 62.946857,134.28392 62.70711,134.28392 62.434632,134.2821 62.364912,134.18351 62.31965,134.01246 L 62.162818,133.50951 58.920493,119.48738 C 58.871965,119.30161 58.794245,119.19856 58.584962,119.15254 Z M 80.855447,118.8787 C 80.578103,118.88194 80.282376,118.92371 79.968045,119.00754 L 77.788809,119.51049 C 77.788809,119.52639 75.287922,119.97925 73.443811,120.41647 70.581248,121.08705 70.492039,122.39374 70.448207,125.42535 V 134.95459 145.8728 C 70.448207,148.3875 71.03995,150.28815 73.561639,150.7911 L 79.800623,152.13184 C 82.650612,152.80243 84.159088,150.41304 84.159088,147.54908 V 135.17712 C 84.159088,134.84184 83.991204,134.67417 83.823557,134.67417 H 78.281012 C 78.113359,134.67417 77.945475,134.84206 77.945475,135.00971 V 139.79534 C 77.945475,139.96299 78.113359,140.13087 78.281012,140.13087 L 79.297669,140.16601 V 145.70538 C 79.297669,146.22023 78.963675,146.73535 78.459185,146.70716 L 76.48248,146.53974 C 75.979541,146.53974 75.344363,145.87209 75.309157,145.20243 V 144.53136 143.86099 125.34274 C 75.566376,124.28956 76.061478,124.27312 76.43563,124.08604 L 77.956232,123.91862 C 78.56861,123.91862 79.079952,124.28923 79.079952,124.95981 V 129.20136 C 79.088928,129.60489 79.25362,129.73428 79.522274,129.72429 L 83.495738,129.57644 C 83.830801,129.56398 83.831486,129.24113 83.831276,129.07348 L 83.824248,123.38046 C 83.820966,120.72783 82.796834,118.85596 80.855447,118.8787 Z M 33.135043,119.10917 34.719668,119.55756 C 36.019752,120.02122 36.540582,120.99381 36.540582,122.00838 36.643637,125.34944 36.670637,128.90885 36.449096,131.80726 36.318339,132.57622 35.57006,133.09634 34.72962,133.09634 H 33.311421 C 32.799669,133.09634 32.632091,132.95342 32.632091,132.58511 V 126.10156 119.61213 C 32.632091,119.27682 32.895744,119.06233 33.135043,119.10917 Z" style="fill:#ffffff" />
  <path d="M 5.999359,74.851298 C 11.067286,102.04862 44.212937,118.94328 79.885514,112.18963 115.73405,105.59761 140.41909,78.062978 135.35116,50.697003 130.27618,23.33103 97.137576,6.6050385 61.450928,13.19002 25.778352,19.950693 0.92439313,47.485331 5.999359,74.851298 Z" id="path12" style="fill:#ffffff" />
  <path id="path1187" d="M 95.478289,-0.01871027 C 94.5023,-0.01673307 93.531857,0.13341014 92.586653,0.44979387 90.066089,1.2934829 88.013328,3.2088115 86.669027,6.0773554 86.332952,6.5976307 86.501136,7.2729152 87.005249,7.7791278 87.509362,8.1166036 88.145035,8.2261507 88.649148,7.8886743 89.657374,7.0449859 90.664985,6.5390683 92.009286,6.0187922 97.897602,3.9939376 104.30057,6.8250381 107.30802,12.951276 107.30802,13.127044 107.64431,13.295764 107.81234,13.295764 H 108.14856 C 108.49865,13.127026 108.66668,12.782353 108.66668,12.444878 108.60087,11.938663 108.40648,11.431958 108.32978,11.094482 106.9983,6.8351848 104.02068,2.9817968 100.32386,1.1256797 98.748512,0.38745165 97.104914,-0.02200607 95.478289,-0.01871027 Z M 48.905529,0.26997083 C 40.51002,0.1966653 33.324971,8.1625673 32.663591,18.071061 V 19.57992 C 32.663591,20.09683 32.998716,20.264538 33.334655,20.432185 H 33.502765 C 33.838703,20.432185 34.007238,20.097103 34.175206,19.761811 36.022868,11.693825 43.595087,5.9795682 52.168523,6.3288317 54.016185,6.3288317 56.031785,6.6639277 57.87945,7.5021584 58.383358,7.6698062 58.887704,7.5021452 59.223645,6.9992058 59.72755,6.3286204 59.559581,5.6439752 59.223645,5.1410361 56.536134,2.1234001 53.008149,0.44726285 49.305823,0.27961659 49.171973,0.27437746 49.03879,0.27113457 48.905529,0.26997083 Z" style="fill:#1c1c1a" />
  <path d="M 123.30112,40.352437 C 122.63003,40.017144 122.12671,40.520083 122.46226,41.023023 123.80444,43.886983 123.76902,48.078144 119.39996,48.078144 114.53457,48.078144 108.15923,42.028901 99.588885,42.028901 93.542105,42.028901 86.831134,46.234034 86.160038,55.629219 82.119536,49.419316 74.976065,45.228154 66.412696,45.228154 50.62815,45.228154 39.380439,64.36779 26.273255,64.36779 20.569009,64.36779 18.856086,59.331412 20.03049,55.461573 20.19826,54.790987 19.527174,54.288048 19.023858,54.790987 14.480033,58.325533 12.970086,64.36779 12.970086,70.249383 12.970086,86.19675 29.30014,99.797074 50.963694,99.797074 71.613622,99.797074 89.144739,87.370276 89.815821,69.229532 94.010118,75.278776 101.09883,78.806337 108.327,78.806337 119.91027,78.806337 130.85085,70.584676 130.85085,56.635098 130.85085,50.264533 127.49541,42.867133 123.30112,40.352437 Z" id="path1160" style="fill:#1c1c1a" />
  <path id="path1158" d="M 98.704764,21.852854 C 96.352523,21.828882 94.548941,24.604944 94.891966,28.123231 95.085158,31.997521 97.632434,35.338736 100.31972,35.48908 102.83912,35.640522 104.66751,32.774502 104.30753,29.069196 103.94762,25.377879 101.74273,22.027314 99.055452,21.876968 98.937303,21.861999 98.820447,21.854033 98.704764,21.852854 Z M 52.801,25.950888 C 49.764794,26.097464 47.75932,29.453475 48.235152,33.80522 48.712138,37.983309 51.723673,41.539545 54.752874,41.392922 57.780967,41.413012 59.65474,37.853762 59.178859,33.508962 58.533692,29.32281 55.829094,25.970977 52.801,25.950888 Z" style="fill:#1c1c1a" />
</svg>
